<?xml version="1.0" encoding="iso-8859-1"?>
<!-- Uploaded to: SVG Repo, www.svgrepo.com, Generator: SVG Repo Mixer Tools -->
<svg fill="#000000" height="800px" width="800px" version="1.1" id="Capa_1" xmlns="http://www.w3.org/2000/svg" xmlns:xlink="http://www.w3.org/1999/xlink" 
	 viewBox="0 0 23.255 23.255" xml:space="preserve">
<g>
	<path d="M18.796,7.073c-0.008,0-0.016,0-0.024,0V7.07h-2.704V4.674h-0.014c0-0.005,0-0.008,0-0.009
		c0-2.464-1.998-4.459-4.456-4.459c-2.465,0-4.462,1.995-4.462,4.459c0,0.152,0.008,0.304,0.021,0.452V7.07H4.471v0.012
		c-0.003,0-0.006,0-0.011,0C1.997,7.082,0,9.077,0,11.541C0,14.003,1.997,16,4.46,16c0.005,0,0.008,0,0.011,0v0.009h2.687v2.297
		c-0.002,0.097-0.014,0.188-0.014,0.283c0,2.464,2.001,4.46,4.459,4.46s4.451-1.987,4.461-4.442h0.004v-2.598h2.704v-0.018
		c0.009,0,0.017,0.001,0.024,0.001c2.465,0,4.459-1.998,4.459-4.459C23.255,9.07,21.261,7.073,18.796,7.073z"/>
	<g>
	</g>
	<g>
	</g>
	<g>
	</g>
	<g>
	</g>
	<g>
	</g>
	<g>
	</g>
	<g>
	</g>
	<g>
	</g>
	<g>
	</g>
	<g>
	</g>
	<g>
	</g>
	<g>
	</g>
	<g>
	</g>
	<g>
	</g>
	<g>
	</g>
</g>
</svg>